# xmcd
#
# Track frame offsets:
#	150
#	12084
#	20193
#	33290
#	39148
#	50284
#	56505
#	65877
#	77321
#
# Disc length: 1220 seconds
#
# Revision: 1
# Processed by: cddbd v1.4b42PL1 Copyright (c) Steve Scherf et al.
# Submitted via: audiograbber 1.80
#
DISCID=6504c209
DTITLE=Chrys King - Music of the Stone
DYEAR=1900
DGENRE=
TTITLE0=King of the Faeries
TTITLE1=The Fairy Queen
TTITLE2=Music at the Glen
TTITLE3=Faeries Hornpipe
TTITLE4=Faer Folk Fancy
TTITLE5=Faery Dance Reel
TTITLE6=The Cluricaun
TTITLE7=The Banshee Wail
TTITLE8=The Hollow Hills
EXTD=
EXTT0=
EXTT1=
EXTT2=
EXTT3=
EXTT4=
EXTT5=
EXTT6=
EXTT7=
EXTT8=
PLAYORDER=
